<svg width="191" height="37" viewBox="0 0 191 37" fill="none" xmlns="http://www.w3.org/2000/svg">
<mask id="path-1-outside-1_4203_172" maskUnits="userSpaceOnUse" x="0" y="0" width="191" height="37" fill="black">
<rect fill="white" width="191" height="37"/>
<path fill-rule="evenodd" clip-rule="evenodd" d="M35.1649 20.6033C34.7221 21.031 34.5209 21.6472 34.6246 22.2516L35.2935 26.1189C35.5019 27.3228 34.5375 28.3005 33.4436 28.3005C33.1553 28.3005 32.8577 28.2323 32.5694 28.0822L29.0697 26.2562C28.7959 26.114 28.4963 26.0429 28.1956 26.0429C27.8959 26.0429 27.5962 26.114 27.3224 26.2562L23.8227 28.0822C23.5345 28.2323 23.2369 28.3005 22.9486 28.3005C21.8546 28.3005 20.8902 27.3228 21.0987 26.1189L21.7675 22.2516C21.8712 21.6472 21.67 21.031 21.2273 20.6033L18.3953 17.8648C17.2817 16.7874 17.8966 14.91 19.4354 14.6878L23.3489 14.1239C23.9607 14.036 24.4895 13.6548 24.7622 13.1047L26.5126 9.58701C26.8568 8.89472 27.5267 8.54908 28.1956 8.54908C28.8654 8.54908 29.5353 8.89472 29.8796 9.58701L31.6299 13.1047C31.9026 13.6548 32.4315 14.036 33.0433 14.1239L36.9567 14.6878C38.4956 14.91 39.1105 16.7874 37.9968 17.8648L35.1649 20.6033Z"/>
<path d="M50.7556 12.9129V9.27818C50.7556 5.26088 47.4975 2 43.4791 2V5.64018C45.4869 5.64018 47.1176 7.2698 47.1176 9.27818V12.9129C47.1176 15.0992 48.1016 17.0383 49.6281 18.3726C48.1016 19.7065 47.1176 21.6428 47.1176 23.8302V27.4682C47.1176 29.4776 45.4869 31.1067 43.4774 31.1067V34.7453C47.4937 34.7453 50.7556 31.4888 50.7556 27.4682V23.8302C50.7556 21.8207 52.3863 20.1916 54.3942 20.1916V16.5515C52.3831 16.5515 50.7556 14.9218 50.7556 12.9129Z"/>
<path d="M9.27873 12.9151V9.27655C9.27873 7.26708 10.9094 5.638 12.9189 5.638V2C8.90052 2 5.64018 5.25652 5.64018 9.27655L5.63855 12.9151C5.63855 14.9246 4.00947 16.5531 2 16.5531V20.1916L2.00164 20.1933C4.01111 20.1933 5.64018 21.8223 5.64018 23.8318V27.4665C5.64018 31.4833 8.8967 34.7453 12.9167 34.7453V31.1051C10.9073 31.1051 9.27873 29.476 9.27873 27.4665V23.8318C9.27873 21.645 8.29419 19.7065 6.76826 18.3726C8.29419 17.0383 9.27873 15.1008 9.27873 12.9151Z"/>
<path d="M88.6573 28.2573L88.6411 18.9967H80.2356V22.3847H84.1238L84.1076 26.644C83.9893 26.7838 83.8118 26.9182 83.5752 27.0473C83.3493 27.1656 83.0858 27.2732 82.7847 27.37C82.4835 27.4668 82.1608 27.5421 81.8167 27.5958C81.4725 27.6496 81.1229 27.6765 80.768 27.6765C80.1872 27.6657 79.6655 27.5743 79.203 27.4022C78.7513 27.2194 78.3534 26.9559 78.0092 26.6117C77.8048 26.4073 77.6166 26.1761 77.4445 25.918C77.2832 25.6491 77.138 25.3587 77.0089 25.0467C76.8045 24.509 76.6432 23.8905 76.5249 23.1914C76.4173 22.4923 76.3636 21.7179 76.3636 20.8682V17.6415C76.3636 16.9639 76.4012 16.3347 76.4765 15.7539C76.5625 15.1731 76.6808 14.646 76.8314 14.1728C77.025 13.5597 77.267 13.0273 77.5574 12.5756C77.8586 12.1238 78.192 11.7581 78.5577 11.4785C78.8374 11.2741 79.1385 11.1182 79.4612 11.0106C79.7839 10.9031 80.1173 10.8493 80.4615 10.8493C81.096 10.8493 81.6392 10.9353 82.0909 11.1074C82.5534 11.2688 82.9353 11.5161 83.2364 11.8496C83.5053 12.1507 83.715 12.5218 83.8656 12.9628C84.027 13.4038 84.1453 13.9093 84.2206 14.4793H88.6411C88.5228 13.35 88.2701 12.3336 87.8829 11.4301C87.5064 10.5266 86.9794 9.75759 86.3018 9.123C85.6242 8.49917 84.7906 8.02055 83.8011 7.68712C82.8223 7.3537 81.6715 7.18698 80.3485 7.18698C79.4881 7.18698 78.6706 7.3053 77.8962 7.54192C77.1218 7.77854 76.4066 8.1281 75.7505 8.5906C75.1912 8.99931 74.6749 9.48332 74.2017 10.0426C73.7392 10.6019 73.3305 11.2311 72.9755 11.9302C72.5991 12.7154 72.3087 13.592 72.1043 14.56C71.9 15.5172 71.7978 16.5552 71.7978 17.6737V20.8682C71.7978 22.0405 71.9 23.1269 72.1043 24.1271C72.3194 25.1274 72.6313 26.0255 73.0401 26.8214C73.395 27.5421 73.8252 28.182 74.3307 28.7413C74.847 29.3006 75.4171 29.7739 76.0409 30.1611C76.6755 30.5375 77.3692 30.8225 78.1221 31.0161C78.8858 31.2205 79.6978 31.3227 80.5583 31.3227C81.5478 31.3227 82.4728 31.2312 83.3332 31.0484C84.1937 30.8656 84.9735 30.6236 85.6726 30.3224C86.3609 30.032 86.9579 29.7039 87.4634 29.3383C87.9689 28.9726 88.3669 28.6122 88.6573 28.2573Z"/>
<path d="M93.707 13.5436V17.2059H98.6762V27.3538H93.707V31H107.937V27.3538H103.21V13.5436H93.707ZM98.3535 9.0746C98.3535 9.41878 98.4126 9.74145 98.531 10.0426C98.66 10.333 98.8375 10.5804 99.0634 10.7847C99.2892 10.9999 99.5581 11.1666 99.87 11.2849C100.193 11.4032 100.548 11.4624 100.935 11.4624C101.731 11.4624 102.36 11.2419 102.822 10.8009C103.296 10.3491 103.532 9.77372 103.532 9.0746C103.532 8.37548 103.296 7.80543 102.822 7.36445C102.36 6.91271 101.731 6.68685 100.935 6.68685C100.548 6.68685 100.193 6.746 99.87 6.86431C99.5581 6.98263 99.2892 7.14396 99.0634 7.34832C98.8375 7.56343 98.66 7.82157 98.531 8.12273C98.4126 8.41313 98.3535 8.73042 98.3535 9.0746Z"/>
<path d="M120.585 9.2682H116.1V13.5436H112.115V16.8509H116.1V24.7886C116.1 25.9395 116.251 26.929 116.552 27.7572C116.853 28.5746 117.283 29.2468 117.843 29.7739C118.391 30.3116 119.053 30.7096 119.827 30.9677C120.612 31.2151 121.484 31.3388 122.441 31.3388C122.936 31.3388 123.436 31.3119 123.941 31.2581C124.457 31.2151 124.952 31.1506 125.425 31.0645C125.899 30.9785 126.345 30.8709 126.765 30.7419C127.184 30.602 127.55 30.4407 127.862 30.2579L127.426 27.1764C127.222 27.2301 126.974 27.2839 126.684 27.3377C126.404 27.3915 126.103 27.4399 125.78 27.4829C125.447 27.5367 125.097 27.5797 124.732 27.612C124.377 27.6442 124.027 27.6604 123.683 27.6604C123.21 27.6604 122.78 27.6066 122.392 27.499C122.016 27.3915 121.693 27.2086 121.424 26.9505C121.155 26.7031 120.946 26.3697 120.795 25.9502C120.655 25.52 120.585 24.9876 120.585 24.353V16.8509H127.103V13.5436H120.585V9.2682Z"/>
<path d="M146.948 21.2715V17.5931H136.88V11.2042H148.206V7.50965H132.331V31H136.88V21.2715H146.948Z"/>
<path d="M162.952 31H167.502V30.7257C167.276 30.2847 167.104 29.7577 166.985 29.1446C166.867 28.5316 166.808 27.7572 166.808 26.8214V19.3355C166.808 18.3245 166.62 17.4371 166.243 16.6735C165.867 15.8991 165.345 15.2591 164.678 14.7536C164.011 14.2481 163.221 13.8662 162.307 13.6081C161.403 13.35 160.424 13.2209 159.37 13.2209C158.198 13.2209 157.155 13.3715 156.24 13.6726C155.337 13.963 154.573 14.361 153.949 14.8665C153.315 15.372 152.831 15.9582 152.497 16.6251C152.175 17.2919 152.013 17.9964 152.013 18.7386H156.499C156.499 18.4266 156.542 18.1416 156.628 17.8835C156.724 17.6253 156.87 17.4049 157.063 17.222C157.278 17.0177 157.558 16.8617 157.902 16.7541C158.246 16.6358 158.655 16.5767 159.128 16.5767C159.666 16.5767 160.134 16.6466 160.532 16.7864C160.941 16.9155 161.279 17.1037 161.548 17.3511C161.806 17.5877 162 17.8727 162.129 18.2062C162.258 18.5288 162.323 18.8945 162.323 19.3032V20.3358H159.822C158.531 20.3358 157.386 20.4541 156.386 20.6907C155.396 20.9166 154.563 21.25 153.885 21.691C153.132 22.175 152.567 22.7934 152.191 23.5463C151.814 24.2885 151.626 25.1435 151.626 26.1116C151.626 26.8645 151.777 27.5636 152.078 28.2089C152.379 28.8435 152.799 29.392 153.336 29.8545C153.874 30.317 154.514 30.6773 155.256 30.9355C156.009 31.1936 156.832 31.3227 157.725 31.3227C158.273 31.3227 158.784 31.2689 159.257 31.1613C159.731 31.0645 160.166 30.9247 160.564 30.7419C160.951 30.5698 161.306 30.3654 161.629 30.1288C161.952 29.8922 162.237 29.6394 162.484 29.3705C162.538 29.6824 162.602 29.9782 162.678 30.2579C162.753 30.5375 162.844 30.7849 162.952 31ZM158.677 27.854C158.257 27.854 157.886 27.8056 157.563 27.7088C157.251 27.6012 156.988 27.4614 156.773 27.2893C156.558 27.1065 156.391 26.886 156.273 26.6278C156.165 26.3589 156.111 26.0685 156.111 25.7566C156.111 25.3587 156.187 24.993 156.337 24.6595C156.488 24.3154 156.719 24.0196 157.031 23.7722C157.343 23.5356 157.746 23.3527 158.241 23.2237C158.736 23.0838 159.333 23.0139 160.032 23.0139H162.323V26.0148C162.194 26.2406 162.016 26.4665 161.79 26.6924C161.564 26.9075 161.296 27.1011 160.984 27.2732C160.672 27.4453 160.322 27.5851 159.935 27.6926C159.548 27.8002 159.128 27.854 158.677 27.854Z"/>
<path d="M177.44 31H181.651L188.282 13.5436H183.603L179.779 25.8534L179.537 27.0796L179.295 25.8534L175.455 13.5436H170.777L177.44 31Z"/>
</mask>
<path fill-rule="evenodd" clip-rule="evenodd" d="M35.1649 20.6033C34.7221 21.031 34.5209 21.6472 34.6246 22.2516L35.2935 26.1189C35.5019 27.3228 34.5375 28.3005 33.4436 28.3005C33.1553 28.3005 32.8577 28.2323 32.5694 28.0822L29.0697 26.2562C28.7959 26.114 28.4963 26.0429 28.1956 26.0429C27.8959 26.0429 27.5962 26.114 27.3224 26.2562L23.8227 28.0822C23.5345 28.2323 23.2369 28.3005 22.9486 28.3005C21.8546 28.3005 20.8902 27.3228 21.0987 26.1189L21.7675 22.2516C21.8712 21.6472 21.67 21.031 21.2273 20.6033L18.3953 17.8648C17.2817 16.7874 17.8966 14.91 19.4354 14.6878L23.3489 14.1239C23.9607 14.036 24.4895 13.6548 24.7622 13.1047L26.5126 9.58701C26.8568 8.89472 27.5267 8.54908 28.1956 8.54908C28.8654 8.54908 29.5353 8.89472 29.8796 9.58701L31.6299 13.1047C31.9026 13.6548 32.4315 14.036 33.0433 14.1239L36.9567 14.6878C38.4956 14.91 39.1105 16.7874 37.9968 17.8648L35.1649 20.6033Z" fill="white"/>
<path d="M50.7556 12.9129V9.27818C50.7556 5.26088 47.4975 2 43.4791 2V5.64018C45.4869 5.64018 47.1176 7.2698 47.1176 9.27818V12.9129C47.1176 15.0992 48.1016 17.0383 49.6281 18.3726C48.1016 19.7065 47.1176 21.6428 47.1176 23.8302V27.4682C47.1176 29.4776 45.4869 31.1067 43.4774 31.1067V34.7453C47.4937 34.7453 50.7556 31.4888 50.7556 27.4682V23.8302C50.7556 21.8207 52.3863 20.1916 54.3942 20.1916V16.5515C52.3831 16.5515 50.7556 14.9218 50.7556 12.9129Z" fill="white"/>
<path d="M9.27873 12.9151V9.27655C9.27873 7.26708 10.9094 5.638 12.9189 5.638V2C8.90052 2 5.64018 5.25652 5.64018 9.27655L5.63855 12.9151C5.63855 14.9246 4.00947 16.5531 2 16.5531V20.1916L2.00164 20.1933C4.01111 20.1933 5.64018 21.8223 5.64018 23.8318V27.4665C5.64018 31.4833 8.8967 34.7453 12.9167 34.7453V31.1051C10.9073 31.1051 9.27873 29.476 9.27873 27.4665V23.8318C9.27873 21.645 8.29419 19.7065 6.76826 18.3726C8.29419 17.0383 9.27873 15.1008 9.27873 12.9151Z" fill="white"/>
<path d="M88.6573 28.2573L88.6411 18.9967H80.2356V22.3847H84.1238L84.1076 26.644C83.9893 26.7838 83.8118 26.9182 83.5752 27.0473C83.3493 27.1656 83.0858 27.2732 82.7847 27.37C82.4835 27.4668 82.1608 27.5421 81.8167 27.5958C81.4725 27.6496 81.1229 27.6765 80.768 27.6765C80.1872 27.6657 79.6655 27.5743 79.203 27.4022C78.7513 27.2194 78.3534 26.9559 78.0092 26.6117C77.8048 26.4073 77.6166 26.1761 77.4445 25.918C77.2832 25.6491 77.138 25.3587 77.0089 25.0467C76.8045 24.509 76.6432 23.8905 76.5249 23.1914C76.4173 22.4923 76.3636 21.7179 76.3636 20.8682V17.6415C76.3636 16.9639 76.4012 16.3347 76.4765 15.7539C76.5625 15.1731 76.6808 14.646 76.8314 14.1728C77.025 13.5597 77.267 13.0273 77.5574 12.5756C77.8586 12.1238 78.192 11.7581 78.5577 11.4785C78.8374 11.2741 79.1385 11.1182 79.4612 11.0106C79.7839 10.9031 80.1173 10.8493 80.4615 10.8493C81.096 10.8493 81.6392 10.9353 82.0909 11.1074C82.5534 11.2688 82.9353 11.5161 83.2364 11.8496C83.5053 12.1507 83.715 12.5218 83.8656 12.9628C84.027 13.4038 84.1453 13.9093 84.2206 14.4793H88.6411C88.5228 13.35 88.2701 12.3336 87.8829 11.4301C87.5064 10.5266 86.9794 9.75759 86.3018 9.123C85.6242 8.49917 84.7906 8.02055 83.8011 7.68712C82.8223 7.3537 81.6715 7.18698 80.3485 7.18698C79.4881 7.18698 78.6706 7.3053 77.8962 7.54192C77.1218 7.77854 76.4066 8.1281 75.7505 8.5906C75.1912 8.99931 74.6749 9.48332 74.2017 10.0426C73.7392 10.6019 73.3305 11.2311 72.9755 11.9302C72.5991 12.7154 72.3087 13.592 72.1043 14.56C71.9 15.5172 71.7978 16.5552 71.7978 17.6737V20.8682C71.7978 22.0405 71.9 23.1269 72.1043 24.1271C72.3194 25.1274 72.6313 26.0255 73.0401 26.8214C73.395 27.5421 73.8252 28.182 74.3307 28.7413C74.847 29.3006 75.4171 29.7739 76.0409 30.1611C76.6755 30.5375 77.3692 30.8225 78.1221 31.0161C78.8858 31.2205 79.6978 31.3227 80.5583 31.3227C81.5478 31.3227 82.4728 31.2312 83.3332 31.0484C84.1937 30.8656 84.9735 30.6236 85.6726 30.3224C86.3609 30.032 86.9579 29.7039 87.4634 29.3383C87.9689 28.9726 88.3669 28.6122 88.6573 28.2573Z" fill="white"/>
<path d="M93.707 13.5436V17.2059H98.6762V27.3538H93.707V31H107.937V27.3538H103.21V13.5436H93.707ZM98.3535 9.0746C98.3535 9.41878 98.4126 9.74145 98.531 10.0426C98.66 10.333 98.8375 10.5804 99.0634 10.7847C99.2892 10.9999 99.5581 11.1666 99.87 11.2849C100.193 11.4032 100.548 11.4624 100.935 11.4624C101.731 11.4624 102.36 11.2419 102.822 10.8009C103.296 10.3491 103.532 9.77372 103.532 9.0746C103.532 8.37548 103.296 7.80543 102.822 7.36445C102.36 6.91271 101.731 6.68685 100.935 6.68685C100.548 6.68685 100.193 6.746 99.87 6.86431C99.5581 6.98263 99.2892 7.14396 99.0634 7.34832C98.8375 7.56343 98.66 7.82157 98.531 8.12273C98.4126 8.41313 98.3535 8.73042 98.3535 9.0746Z" fill="white"/>
<path d="M120.585 9.2682H116.1V13.5436H112.115V16.8509H116.1V24.7886C116.1 25.9395 116.251 26.929 116.552 27.7572C116.853 28.5746 117.283 29.2468 117.843 29.7739C118.391 30.3116 119.053 30.7096 119.827 30.9677C120.612 31.2151 121.484 31.3388 122.441 31.3388C122.936 31.3388 123.436 31.3119 123.941 31.2581C124.457 31.2151 124.952 31.1506 125.425 31.0645C125.899 30.9785 126.345 30.8709 126.765 30.7419C127.184 30.602 127.55 30.4407 127.862 30.2579L127.426 27.1764C127.222 27.2301 126.974 27.2839 126.684 27.3377C126.404 27.3915 126.103 27.4399 125.78 27.4829C125.447 27.5367 125.097 27.5797 124.732 27.612C124.377 27.6442 124.027 27.6604 123.683 27.6604C123.21 27.6604 122.78 27.6066 122.392 27.499C122.016 27.3915 121.693 27.2086 121.424 26.9505C121.155 26.7031 120.946 26.3697 120.795 25.9502C120.655 25.52 120.585 24.9876 120.585 24.353V16.8509H127.103V13.5436H120.585V9.2682Z" fill="white"/>
<path d="M146.948 21.2715V17.5931H136.88V11.2042H148.206V7.50965H132.331V31H136.88V21.2715H146.948Z" fill="white"/>
<path d="M162.952 31H167.502V30.7257C167.276 30.2847 167.104 29.7577 166.985 29.1446C166.867 28.5316 166.808 27.7572 166.808 26.8214V19.3355C166.808 18.3245 166.62 17.4371 166.243 16.6735C165.867 15.8991 165.345 15.2591 164.678 14.7536C164.011 14.2481 163.221 13.8662 162.307 13.6081C161.403 13.35 160.424 13.2209 159.37 13.2209C158.198 13.2209 157.155 13.3715 156.24 13.6726C155.337 13.963 154.573 14.361 153.949 14.8665C153.315 15.372 152.831 15.9582 152.497 16.6251C152.175 17.2919 152.013 17.9964 152.013 18.7386H156.499C156.499 18.4266 156.542 18.1416 156.628 17.8835C156.724 17.6253 156.87 17.4049 157.063 17.222C157.278 17.0177 157.558 16.8617 157.902 16.7541C158.246 16.6358 158.655 16.5767 159.128 16.5767C159.666 16.5767 160.134 16.6466 160.532 16.7864C160.941 16.9155 161.279 17.1037 161.548 17.3511C161.806 17.5877 162 17.8727 162.129 18.2062C162.258 18.5288 162.323 18.8945 162.323 19.3032V20.3358H159.822C158.531 20.3358 157.386 20.4541 156.386 20.6907C155.396 20.9166 154.563 21.25 153.885 21.691C153.132 22.175 152.567 22.7934 152.191 23.5463C151.814 24.2885 151.626 25.1435 151.626 26.1116C151.626 26.8645 151.777 27.5636 152.078 28.2089C152.379 28.8435 152.799 29.392 153.336 29.8545C153.874 30.317 154.514 30.6773 155.256 30.9355C156.009 31.1936 156.832 31.3227 157.725 31.3227C158.273 31.3227 158.784 31.2689 159.257 31.1613C159.731 31.0645 160.166 30.9247 160.564 30.7419C160.951 30.5698 161.306 30.3654 161.629 30.1288C161.952 29.8922 162.237 29.6394 162.484 29.3705C162.538 29.6824 162.602 29.9782 162.678 30.2579C162.753 30.5375 162.844 30.7849 162.952 31ZM158.677 27.854C158.257 27.854 157.886 27.8056 157.563 27.7088C157.251 27.6012 156.988 27.4614 156.773 27.2893C156.558 27.1065 156.391 26.886 156.273 26.6278C156.165 26.3589 156.111 26.0685 156.111 25.7566C156.111 25.3587 156.187 24.993 156.337 24.6595C156.488 24.3154 156.719 24.0196 157.031 23.7722C157.343 23.5356 157.746 23.3527 158.241 23.2237C158.736 23.0838 159.333 23.0139 160.032 23.0139H162.323V26.0148C162.194 26.2406 162.016 26.4665 161.79 26.6924C161.564 26.9075 161.296 27.1011 160.984 27.2732C160.672 27.4453 160.322 27.5851 159.935 27.6926C159.548 27.8002 159.128 27.854 158.677 27.854Z" fill="white"/>
<path d="M177.44 31H181.651L188.282 13.5436H183.603L179.779 25.8534L179.537 27.0796L179.295 25.8534L175.455 13.5436H170.777L177.44 31Z" fill="white"/>
<path fill-rule="evenodd" clip-rule="evenodd" d="M35.1649 20.6033C34.7221 21.031 34.5209 21.6472 34.6246 22.2516L35.2935 26.1189C35.5019 27.3228 34.5375 28.3005 33.4436 28.3005C33.1553 28.3005 32.8577 28.2323 32.5694 28.0822L29.0697 26.2562C28.7959 26.114 28.4963 26.0429 28.1956 26.0429C27.8959 26.0429 27.5962 26.114 27.3224 26.2562L23.8227 28.0822C23.5345 28.2323 23.2369 28.3005 22.9486 28.3005C21.8546 28.3005 20.8902 27.3228 21.0987 26.1189L21.7675 22.2516C21.8712 21.6472 21.67 21.031 21.2273 20.6033L18.3953 17.8648C17.2817 16.7874 17.8966 14.91 19.4354 14.6878L23.3489 14.1239C23.9607 14.036 24.4895 13.6548 24.7622 13.1047L26.5126 9.58701C26.8568 8.89472 27.5267 8.54908 28.1956 8.54908C28.8654 8.54908 29.5353 8.89472 29.8796 9.58701L31.6299 13.1047C31.9026 13.6548 32.4315 14.036 33.0433 14.1239L36.9567 14.6878C38.4956 14.91 39.1105 16.7874 37.9968 17.8648L35.1649 20.6033Z" stroke="black" stroke-width="4" stroke-linejoin="round" mask="url(#path-1-outside-1_4203_172)"/>
<path d="M50.7556 12.9129V9.27818C50.7556 5.26088 47.4975 2 43.4791 2V5.64018C45.4869 5.64018 47.1176 7.2698 47.1176 9.27818V12.9129C47.1176 15.0992 48.1016 17.0383 49.6281 18.3726C48.1016 19.7065 47.1176 21.6428 47.1176 23.8302V27.4682C47.1176 29.4776 45.4869 31.1067 43.4774 31.1067V34.7453C47.4937 34.7453 50.7556 31.4888 50.7556 27.4682V23.8302C50.7556 21.8207 52.3863 20.1916 54.3942 20.1916V16.5515C52.3831 16.5515 50.7556 14.9218 50.7556 12.9129Z" stroke="black" stroke-width="4" stroke-linejoin="round" mask="url(#path-1-outside-1_4203_172)"/>
<path d="M9.27873 12.9151V9.27655C9.27873 7.26708 10.9094 5.638 12.9189 5.638V2C8.90052 2 5.64018 5.25652 5.64018 9.27655L5.63855 12.9151C5.63855 14.9246 4.00947 16.5531 2 16.5531V20.1916L2.00164 20.1933C4.01111 20.1933 5.64018 21.8223 5.64018 23.8318V27.4665C5.64018 31.4833 8.8967 34.7453 12.9167 34.7453V31.1051C10.9073 31.1051 9.27873 29.476 9.27873 27.4665V23.8318C9.27873 21.645 8.29419 19.7065 6.76826 18.3726C8.29419 17.0383 9.27873 15.1008 9.27873 12.9151Z" stroke="black" stroke-width="4" stroke-linejoin="round" mask="url(#path-1-outside-1_4203_172)"/>
<path d="M88.6573 28.2573L88.6411 18.9967H80.2356V22.3847H84.1238L84.1076 26.644C83.9893 26.7838 83.8118 26.9182 83.5752 27.0473C83.3493 27.1656 83.0858 27.2732 82.7847 27.37C82.4835 27.4668 82.1608 27.5421 81.8167 27.5958C81.4725 27.6496 81.1229 27.6765 80.768 27.6765C80.1872 27.6657 79.6655 27.5743 79.203 27.4022C78.7513 27.2194 78.3534 26.9559 78.0092 26.6117C77.8048 26.4073 77.6166 26.1761 77.4445 25.918C77.2832 25.6491 77.138 25.3587 77.0089 25.0467C76.8045 24.509 76.6432 23.8905 76.5249 23.1914C76.4173 22.4923 76.3636 21.7179 76.3636 20.8682V17.6415C76.3636 16.9639 76.4012 16.3347 76.4765 15.7539C76.5625 15.1731 76.6808 14.646 76.8314 14.1728C77.025 13.5597 77.267 13.0273 77.5574 12.5756C77.8586 12.1238 78.192 11.7581 78.5577 11.4785C78.8374 11.2741 79.1385 11.1182 79.4612 11.0106C79.7839 10.9031 80.1173 10.8493 80.4615 10.8493C81.096 10.8493 81.6392 10.9353 82.0909 11.1074C82.5534 11.2688 82.9353 11.5161 83.2364 11.8496C83.5053 12.1507 83.715 12.5218 83.8656 12.9628C84.027 13.4038 84.1453 13.9093 84.2206 14.4793H88.6411C88.5228 13.35 88.2701 12.3336 87.8829 11.4301C87.5064 10.5266 86.9794 9.75759 86.3018 9.123C85.6242 8.49917 84.7906 8.02055 83.8011 7.68712C82.8223 7.3537 81.6715 7.18698 80.3485 7.18698C79.4881 7.18698 78.6706 7.3053 77.8962 7.54192C77.1218 7.77854 76.4066 8.1281 75.7505 8.5906C75.1912 8.99931 74.6749 9.48332 74.2017 10.0426C73.7392 10.6019 73.3305 11.2311 72.9755 11.9302C72.5991 12.7154 72.3087 13.592 72.1043 14.56C71.9 15.5172 71.7978 16.5552 71.7978 17.6737V20.8682C71.7978 22.0405 71.9 23.1269 72.1043 24.1271C72.3194 25.1274 72.6313 26.0255 73.0401 26.8214C73.395 27.5421 73.8252 28.182 74.3307 28.7413C74.847 29.3006 75.4171 29.7739 76.0409 30.1611C76.6755 30.5375 77.3692 30.8225 78.1221 31.0161C78.8858 31.2205 79.6978 31.3227 80.5583 31.3227C81.5478 31.3227 82.4728 31.2312 83.3332 31.0484C84.1937 30.8656 84.9735 30.6236 85.6726 30.3224C86.3609 30.032 86.9579 29.7039 87.4634 29.3383C87.9689 28.9726 88.3669 28.6122 88.6573 28.2573Z" stroke="black" stroke-width="4" stroke-linejoin="round" mask="url(#path-1-outside-1_4203_172)"/>
<path d="M93.707 13.5436V17.2059H98.6762V27.3538H93.707V31H107.937V27.3538H103.21V13.5436H93.707ZM98.3535 9.0746C98.3535 9.41878 98.4126 9.74145 98.531 10.0426C98.66 10.333 98.8375 10.5804 99.0634 10.7847C99.2892 10.9999 99.5581 11.1666 99.87 11.2849C100.193 11.4032 100.548 11.4624 100.935 11.4624C101.731 11.4624 102.36 11.2419 102.822 10.8009C103.296 10.3491 103.532 9.77372 103.532 9.0746C103.532 8.37548 103.296 7.80543 102.822 7.36445C102.36 6.91271 101.731 6.68685 100.935 6.68685C100.548 6.68685 100.193 6.746 99.87 6.86431C99.5581 6.98263 99.2892 7.14396 99.0634 7.34832C98.8375 7.56343 98.66 7.82157 98.531 8.12273C98.4126 8.41313 98.3535 8.73042 98.3535 9.0746Z" stroke="black" stroke-width="4" stroke-linejoin="round" mask="url(#path-1-outside-1_4203_172)"/>
<path d="M120.585 9.2682H116.1V13.5436H112.115V16.8509H116.1V24.7886C116.1 25.9395 116.251 26.929 116.552 27.7572C116.853 28.5746 117.283 29.2468 117.843 29.7739C118.391 30.3116 119.053 30.7096 119.827 30.9677C120.612 31.2151 121.484 31.3388 122.441 31.3388C122.936 31.3388 123.436 31.3119 123.941 31.2581C124.457 31.2151 124.952 31.1506 125.425 31.0645C125.899 30.9785 126.345 30.8709 126.765 30.7419C127.184 30.602 127.55 30.4407 127.862 30.2579L127.426 27.1764C127.222 27.2301 126.974 27.2839 126.684 27.3377C126.404 27.3915 126.103 27.4399 125.78 27.4829C125.447 27.5367 125.097 27.5797 124.732 27.612C124.377 27.6442 124.027 27.6604 123.683 27.6604C123.21 27.6604 122.78 27.6066 122.392 27.499C122.016 27.3915 121.693 27.2086 121.424 26.9505C121.155 26.7031 120.946 26.3697 120.795 25.9502C120.655 25.52 120.585 24.9876 120.585 24.353V16.8509H127.103V13.5436H120.585V9.2682Z" stroke="black" stroke-width="4" stroke-linejoin="round" mask="url(#path-1-outside-1_4203_172)"/>
<path d="M146.948 21.2715V17.5931H136.88V11.2042H148.206V7.50965H132.331V31H136.88V21.2715H146.948Z" stroke="black" stroke-width="4" stroke-linejoin="round" mask="url(#path-1-outside-1_4203_172)"/>
<path d="M162.952 31H167.502V30.7257C167.276 30.2847 167.104 29.7577 166.985 29.1446C166.867 28.5316 166.808 27.7572 166.808 26.8214V19.3355C166.808 18.3245 166.62 17.4371 166.243 16.6735C165.867 15.8991 165.345 15.2591 164.678 14.7536C164.011 14.2481 163.221 13.8662 162.307 13.6081C161.403 13.35 160.424 13.2209 159.37 13.2209C158.198 13.2209 157.155 13.3715 156.24 13.6726C155.337 13.963 154.573 14.361 153.949 14.8665C153.315 15.372 152.831 15.9582 152.497 16.6251C152.175 17.2919 152.013 17.9964 152.013 18.7386H156.499C156.499 18.4266 156.542 18.1416 156.628 17.8835C156.724 17.6253 156.87 17.4049 157.063 17.222C157.278 17.0177 157.558 16.8617 157.902 16.7541C158.246 16.6358 158.655 16.5767 159.128 16.5767C159.666 16.5767 160.134 16.6466 160.532 16.7864C160.941 16.9155 161.279 17.1037 161.548 17.3511C161.806 17.5877 162 17.8727 162.129 18.2062C162.258 18.5288 162.323 18.8945 162.323 19.3032V20.3358H159.822C158.531 20.3358 157.386 20.4541 156.386 20.6907C155.396 20.9166 154.563 21.25 153.885 21.691C153.132 22.175 152.567 22.7934 152.191 23.5463C151.814 24.2885 151.626 25.1435 151.626 26.1116C151.626 26.8645 151.777 27.5636 152.078 28.2089C152.379 28.8435 152.799 29.392 153.336 29.8545C153.874 30.317 154.514 30.6773 155.256 30.9355C156.009 31.1936 156.832 31.3227 157.725 31.3227C158.273 31.3227 158.784 31.2689 159.257 31.1613C159.731 31.0645 160.166 30.9247 160.564 30.7419C160.951 30.5698 161.306 30.3654 161.629 30.1288C161.952 29.8922 162.237 29.6394 162.484 29.3705C162.538 29.6824 162.602 29.9782 162.678 30.2579C162.753 30.5375 162.844 30.7849 162.952 31ZM158.677 27.854C158.257 27.854 157.886 27.8056 157.563 27.7088C157.251 27.6012 156.988 27.4614 156.773 27.2893C156.558 27.1065 156.391 26.886 156.273 26.6278C156.165 26.3589 156.111 26.0685 156.111 25.7566C156.111 25.3587 156.187 24.993 156.337 24.6595C156.488 24.3154 156.719 24.0196 157.031 23.7722C157.343 23.5356 157.746 23.3527 158.241 23.2237C158.736 23.0838 159.333 23.0139 160.032 23.0139H162.323V26.0148C162.194 26.2406 162.016 26.4665 161.79 26.6924C161.564 26.9075 161.296 27.1011 160.984 27.2732C160.672 27.4453 160.322 27.5851 159.935 27.6926C159.548 27.8002 159.128 27.854 158.677 27.854Z" stroke="black" stroke-width="4" stroke-linejoin="round" mask="url(#path-1-outside-1_4203_172)"/>
<path d="M177.44 31H181.651L188.282 13.5436H183.603L179.779 25.8534L179.537 27.0796L179.295 25.8534L175.455 13.5436H170.777L177.44 31Z" stroke="black" stroke-width="4" stroke-linejoin="round" mask="url(#path-1-outside-1_4203_172)"/>
</svg>
