<svg width="65" height="65" viewBox="0 0 65 65" fill="none" xmlns="http://www.w3.org/2000/svg">
<rect width="65" height="65" rx="10" fill="black"/>
<path fill-rule="evenodd" clip-rule="evenodd" d="M44.9331 36.3605C44.1432 37.1182 43.7842 38.2102 43.9692 39.2812L45.1625 46.1342C45.5344 48.2675 43.8139 50 41.8621 50C41.3478 50 40.8168 49.8793 40.3025 49.6133L34.0586 46.3775C33.5702 46.1255 33.0356 45.9995 32.4991 45.9995C31.9644 45.9995 31.4298 46.1255 30.9414 46.3775L24.6975 49.6133C24.1832 49.8793 23.6522 50 23.1379 50C21.1862 50 19.4656 48.2675 19.8375 46.1342L21.0308 39.2812C21.2158 38.2102 20.8569 37.1182 20.0669 36.3605L15.0145 31.5077C13.0275 29.5985 14.1246 26.2717 16.87 25.878L23.852 24.8787C24.9436 24.723 25.8871 24.0475 26.3736 23.0728L29.4965 16.8392C30.1107 15.6125 31.3058 15 32.4991 15C33.6942 15 34.8893 15.6125 35.5035 16.8392L38.6264 23.0728C39.1129 24.0475 40.0564 24.723 41.148 24.8787L48.13 25.878C50.8754 26.2717 51.9725 29.5985 49.9855 31.5077L44.9331 36.3605Z" fill="white"/>
</svg>
